<?xml version="1.0" encoding="utf-8"?>
<!-- Generator: Circuit Diagram, cdlibrary.dll 1.0.0.0 -->
<!DOCTYPE svg PUBLIC "-//W3C//DTD SVG 1.1//EN" "http://www.w3.org/Graphics/SVG/1.1/DTD/svg11.dtd">
<svg version="1.1" width="360" height="275" viewBox="0 0 360 275" enable-background="new 0 0 360 275" xml:space="preserve" xmlns="http://www.w3.org/2000/svg">
	<line x1="40" y1="100" x2="40" y2="169" style="stroke:rgb(0,0,0);stroke-linecap:square;stroke-width:2" />
	<ellipse cx="40" cy="185" rx="16" ry="16" style="fill-opacity:0;fill:rgb(0,0,0);stroke:rgb(0,0,0);stroke-width:2" />
	<line x1="40" y1="201" x2="40" y2="270" style="stroke:rgb(0,0,0);stroke-linecap:square;stroke-width:2" />
	<path d="M 40,185 M 40,175 L 40,183 M 36,179 L 44,179 M 36,193 L 44,193" style="fill-opacity:0;fill:rgb(0,0,0);stroke:rgb(0,0,0);stroke-width:2" />
	<text x="60" y="190" style="font-family:Arial;font-size:11px;text-anchor:start" dy=".3em">$V_{oc}$</text>
	<text x="90" y="80" style="font-family:Arial;font-size:11px;text-anchor:start" dy=".3em">$R0$</text>
	<line x1="70" y1="100" x2="61" y2="100" style="stroke:rgb(0,0,0);stroke-linecap:square;stroke-width:2" />
	<path d="M 61,100 L 71,100 L 75,95 L 83,105 L 91,95 L 99,105 L 107,95 L 115,105 L 119,100 L 129,100" style="fill-opacity:0;fill:rgb(0,0,0);stroke:rgb(0,0,0);stroke-width:2" />
	<line x1="129" y1="100" x2="120" y2="100" style="stroke:rgb(0,0,0);stroke-linecap:square;stroke-width:2" />
	<line x1="140" y1="60" x2="156" y2="60" style="stroke:rgb(0,0,0);stroke-linecap:square;stroke-width:2" />
	<path d="M 156,60 L 166,60 L 170,55 L 178,65 L 186,55 L 194,65 L 202,55 L 210,65 L 214,60 L 224,60" style="fill-opacity:0;fill:rgb(0,0,0);stroke:rgb(0,0,0);stroke-width:2" />
	<line x1="224" y1="60" x2="240" y2="60" style="stroke:rgb(0,0,0);stroke-linecap:square;stroke-width:2" />
	<line x1="140" y1="140" x2="186" y2="140" style="stroke:rgb(0,0,0);stroke-linecap:square;stroke-width:2" />
	<line x1="194" y1="140" x2="240" y2="140" style="stroke:rgb(0,0,0);stroke-linecap:square;stroke-width:2" />
	<line x1="186" y1="126" x2="186" y2="154" style="stroke:rgb(0,0,0);stroke-linecap:square;stroke-width:2" />
	<line x1="194" y1="126" x2="194" y2="154" style="stroke:rgb(0,0,0);stroke-linecap:square;stroke-width:2" />
	<text x="190" y="122" style="font-family:Arial;font-size:11px;text-anchor:middle" dy="-0.3em">$C1$</text>
	<text x="318" y="100" style="font-family:Arial;font-size:12px;text-anchor:start" dy=".3em">+</text>
	<line x1="280" y1="100" x2="307" y2="100" style="stroke:rgb(0,0,0);stroke-linecap:square;stroke-width:2" />
	<ellipse cx="310" cy="100" rx="3" ry="3" style="fill-opacity:0;fill:rgb(0,0,0);stroke:rgb(0,0,0);stroke-width:2" />
	<text x="328" y="270" style="font-family:Arial;font-size:12px;text-anchor:start" dy=".3em">-</text>
	<line x1="290" y1="270" x2="317" y2="270" style="stroke:rgb(0,0,0);stroke-linecap:square;stroke-width:2" />
	<ellipse cx="320" cy="270" rx="3" ry="3" style="fill-opacity:0;fill:rgb(0,0,0);stroke:rgb(0,0,0);stroke-width:2" />
	<text x="180" y="40" style="font-family:Arial;font-size:11px;text-anchor:start" dy=".3em">$R1$</text>
	<line x1="260" y1="110" x2="295" y2="110" style="stroke:rgb(0,0,0);stroke-linecap:square;stroke-width:2" />
	<path d="M 295,110 L 295,113 L 300,110 L 295,107 L 295,110" style="fill-opacity:1;fill:rgb(0,0,0);stroke:rgb(0,0,0);stroke-width:2" />
	<text x="280" y="122" style="font-family:Arial;font-size:11px;text-anchor:middle" dy=".3em">$I_{Line}$</text>
	<text x="150" y="170" style="font-family:Arial;font-size:11px;text-anchor:start" dy=".3em">+ \quad $V_{Th}$ \quad -</text>
	<text x="300" y="190" style="font-family:Arial;font-size:11px;text-anchor:start" dy=".3em">$V_{Line}$</text>
	<line x1="150" y1="130" x2="165" y2="130" style="stroke:rgb(0,0,0);stroke-linecap:square;stroke-width:2" />
	<path d="M 165,130 L 165,127 L 170,130 L 165,133 L 165,130" style="fill-opacity:1;fill:rgb(0,0,0);stroke:rgb(0,0,0);stroke-width:2" />
	<text x="160" y="118" style="font-family:Arial;font-size:11px;text-anchor:middle" dy=".3em">$I_{Th}$</text>
	<line x1="40" y1="100" x2="70" y2="100" style="stroke:rgb(0,0,0);stroke-linecap:square;stroke-width:2" />
	<line x1="40" y1="270" x2="300" y2="270" style="stroke:rgb(0,0,0);stroke-linecap:square;stroke-width:2" />
	<line x1="140" y1="60" x2="140" y2="140" style="stroke:rgb(0,0,0);stroke-linecap:square;stroke-width:2" />
	<line x1="240" y1="60" x2="240" y2="140" style="stroke:rgb(0,0,0);stroke-linecap:square;stroke-width:2" />
	<line x1="240" y1="100" x2="300" y2="100" style="stroke:rgb(0,0,0);stroke-linecap:square;stroke-width:2" />
	<line x1="130" y1="100" x2="140" y2="100" style="stroke:rgb(0,0,0);stroke-linecap:square;stroke-width:2" />
	<ellipse cx="140" cy="100" rx="2" ry="2" style="fill-opacity:1;fill:rgb(0,0,0);stroke:rgb(0,0,0);stroke-width:2" />
	<ellipse cx="240" cy="100" rx="2" ry="2" style="fill-opacity:1;fill:rgb(0,0,0);stroke:rgb(0,0,0);stroke-width:2" />
</svg>